<svg width="512" height="512" viewBox="0 0 512 512" xmlns="http://www.w3.org/2000/svg">
  <defs>
    <linearGradient id="grad512" x1="0%" y1="0%" x2="100%" y2="100%">
      <stop offset="0%" stop-color="#8b5cf6"/>
      <stop offset="100%" stop-color="#6b46c1"/>
    </linearGradient>
  </defs>
  <rect width="512" height="512" rx="64" fill="url(#grad512)"/>
  <path d="M256 88c-16 0-30 13-30 30v116h-80c-16 0-30 13-30 30s13 30 30 30h80v108c0 16 13 30 30 30s30-13 30-30V294h80c16 0 30-13 30-30s-13-30-30-30h-80V118c0-16-13-30-30-30z" fill="#fff"/>
</svg>

